<?xml version="1.0" encoding="UTF-8" standalone="no"?><!DOCTYPE svg PUBLIC "-//W3C//DTD SVG 1.1//EN" "http://www.w3.org/Graphics/SVG/1.1/DTD/svg11.dtd"><svg width="100%" height="100%" viewBox="0 0 30 31" version="1.1" xmlns="http://www.w3.org/2000/svg" xmlns:xlink="http://www.w3.org/1999/xlink" xml:space="preserve" xmlns:serif="http://www.serif.com/" style="fill-rule:evenodd;clip-rule:evenodd;stroke-linejoin:round;stroke-miterlimit:1.41421;"><path d="M28.382,13.627l-12.876,-12.875c-0.5,-0.502 -1.1,-0.752 -1.799,-0.752c-0.686,0 -1.279,0.25 -1.781,0.752l-1.483,1.483c-0.501,0.475 -0.751,1.068 -0.751,1.78c0,0.712 0.25,1.305 0.751,1.78l5.795,5.815l-13.924,0c-0.686,0 -1.243,0.247 -1.671,0.742c-0.429,0.494 -0.643,1.091 -0.643,1.79l0,2.531c0,0.699 0.214,1.296 0.643,1.79c0.428,0.495 0.985,0.742 1.671,0.742l13.924,0l-5.795,5.795c-0.501,0.501 -0.752,1.101 -0.752,1.8c0,0.699 0.251,1.299 0.752,1.8l1.483,1.483c0.515,0.488 1.108,0.732 1.78,0.732c0.686,0 1.286,-0.244 1.8,-0.732l12.876,-12.876c0.488,-0.488 0.732,-1.087 0.732,-1.8c0,-0.725 -0.244,-1.318 -0.732,-1.78Z" style="fill:#fff;fill-rule:nonzero;"/></svg>