<?xml version="1.0" encoding="UTF-8" standalone="no"?><!DOCTYPE svg PUBLIC "-//W3C//DTD SVG 1.1//EN" "http://www.w3.org/Graphics/SVG/1.1/DTD/svg11.dtd"><svg width="100%" height="100%" viewBox="0 0 37 28" version="1.1" xmlns="http://www.w3.org/2000/svg" xmlns:xlink="http://www.w3.org/1999/xlink" xml:space="preserve" xmlns:serif="http://www.serif.com/" style="fill-rule:evenodd;clip-rule:evenodd;stroke-linejoin:round;stroke-miterlimit:1.41421;"><path d="M35.551,3.831l-3.177,-3.177c-0.435,-0.436 -0.965,-0.654 -1.588,-0.654c-0.623,0 -1.153,0.218 -1.588,0.654l-15.323,15.346l-6.868,-6.891c-0.436,-0.436 -0.965,-0.653 -1.588,-0.653c-0.623,0 -1.152,0.217 -1.588,0.653l-3.177,3.177c-0.436,0.436 -0.654,0.966 -0.654,1.589c0,0.622 0.218,1.152 0.654,1.588l8.455,8.456l3.177,3.176c0.436,0.436 0.966,0.654 1.589,0.654c0.622,0 1.152,-0.218 1.588,-0.654l3.177,-3.176l16.911,-16.912c0.436,-0.436 0.654,-0.965 0.654,-1.588c0,-0.623 -0.218,-1.152 -0.654,-1.588Z" style="fill:#fff;fill-rule:nonzero;"/></svg>